<?xml version="1.0" standalone="no"?>
<!DOCTYPE svg PUBLIC "-//W3C//DTD SVG 1.1//EN" "http://www.w3.org/Graphics/SVG/1.1/DTD/svg11.dtd" >
<svg xmlns="http://www.w3.org/2000/svg">
<metadata>Generated by IcoMoon</metadata>
<defs>
<font id="icomoon" horiz-adv-x="1024">
<font-face units-per-em="1024" ascent="960" descent="-64" />
<missing-glyph horiz-adv-x="1024" />
<glyph unicode="&#x20;" horiz-adv-x="512" d="" />
<glyph unicode="&#xe900;" glyph-name="add-back-black" d="M1024 512h-780.8l358.4 358.4-89.6 89.6-512-512 512-512 89.6 89.6-358.4 358.4h780.8z" />
<glyph unicode="&#xe901;" glyph-name="alert-flag" d="M298.667 789.333v-729.984h45.739v337.92l479.317 204.075z" />
<glyph unicode="&#xe902;" glyph-name="arrow-drop-down" d="M298.667 533.333l213.333-213.333 213.333 213.333z" />
<glyph unicode="&#xe903;" glyph-name="cart-black" d="M341.333 192c-47.061 0-84.907-38.187-84.907-85.333 0-47.104 37.845-85.333 84.907-85.333 47.128 0 85.333 38.205 85.333 85.333s-38.205 85.333-85.333 85.333v0zM768 192c-47.104 0-84.907-38.187-84.907-85.333 0-47.104 37.803-85.333 84.907-85.333 47.128 0 85.333 38.205 85.333 85.333s-38.205 85.333-85.333 85.333v0zM170.667 874.667h-85.333v-85.291h85.333l153.515-323.755-57.685-104.576c-6.621-11.845-10.52-25.99-10.52-41.045 0-47.128 38.205-85.333 85.333-85.333 0.008 0 0.017 0 0.025 0h511.913v85.333h-493.867c0 0 0 0 0 0-5.867 0-10.624 4.757-10.624 10.624 0 0.015 0 0.030 0 0.045v-0.002l1.28 5.163 38.315 69.504h317.824c32.043 0 60.032 17.707 74.667 43.904l152.448 276.864c3.34 5.944 5.307 13.046 5.307 20.608 0 23.555-19.087 42.652-42.639 42.667h-630.828l-17.323 36.437c-13.967 29.111-43.209 48.853-77.062 48.853-0.028 0-0.056 0-0.084 0h0.004z" />
<glyph unicode="&#xe904;" glyph-name="check" d="M341.333 209.067l-238.933 238.933-79.644-79.644 318.578-318.578 682.667 682.667-79.644 79.644z" />
<glyph unicode="&#xe905;" glyph-name="chevron-right" d="M366.933 644.267l59.733 59.733 256-256-256-256-59.733 59.733 196.267 196.267z" />
<glyph unicode="&#xe906;" glyph-name="close" d="M810.667 686.933l-59.733 59.733-238.933-238.933-238.933 238.933-59.733-59.733 238.933-238.933-238.933-238.933 59.733-59.733 238.933 238.933 238.933-238.933 59.733 59.733-238.933 238.933z" />
<glyph unicode="&#xe907;" glyph-name="location" horiz-adv-x="740" d="M369.778 463.758c-68.147 0.291-123.278 55.602-123.278 123.789 0 0.080 0 0.161 0 0.241v-0.012c0 68.494 55.296 124.132 123.278 124.132s123.278-55.637 123.278-124.075c0-0.085 0-0.185 0-0.286 0-68.188-55.132-123.498-123.251-123.789h-0.028zM369.778 960c-203.89 0-369.778-166.912-369.778-372.167 0-0.132 0-0.289 0-0.445 0-81.319 26.169-156.526 70.545-217.659l-0.742 1.073 9.671-13.653 265.671-377.287c5.674-7.518 14.592-12.326 24.633-12.326s18.959 4.808 24.577 12.248l0.056 0.078 262.315 372.793 12.971 18.034c43.669 60.089 69.86 135.337 69.86 216.702 0 0.156 0 0.311 0 0.467v-0.024c0 205.255-165.888 372.167-369.778 372.167z" />
<glyph unicode="&#xe908;" d="M1024 448c0-282.77-229.23-512-512-512s-512 229.23-512 512c0 282.77 229.23 512 512 512s512-229.23 512-512z" />
<glyph unicode="&#xe909;" d="M434.018 723.692l-118.942-353.989h118.942l-118.942-275.614 393.846 393.846h-158.090l158.090 235.756z" />
<glyph unicode="&#xe90a;" glyph-name="filter-black" d="M853.333 832h-682.667l259.413-352.683v-394.837l163.84 107.819v287.019z" />
<glyph unicode="&#xe90b;" glyph-name="home-black" d="M876.079 0v390.284l-362.961 318.324-362.915-318.371v-390.191h276.48v293.236h170.636v-293.236zM804.399 876.218h-113.757v-101.469l-177.524 158.487-506.275-452.841 76.195-85.644 430.080 385.676 430.080-385.629 76.241 85.551-215.040 192.838z" />
<glyph unicode="&#xe90c;" glyph-name="at" d="M991.451 512c0-54.857-8.777-105.033-26.331-150.601-17.554-45.495-42.277-81.189-74.24-107.081-29.403-24.234-67.454-38.931-108.939-38.931-0.89 0-1.778 0.007-2.665 0.020l0.134-0.002c-28.16 0-53.102 6.802-74.825 20.334-20.71 12.583-36.864 30.857-46.518 52.652l-0.294 0.742h-9.216c-41.106-49.152-93.477-73.728-157.111-73.728-67.438 0-120.613 20.334-159.451 60.855-38.839 40.594-58.295 96.11-58.295 166.619 0 80.384 25.6 145.115 76.581 194.267 51.054 49.152 117.76 73.728 199.973 73.728 32.768 0 68.901-3.145 108.251-9.509 39.497-6.217 71.973-13.751 97.499-22.528l-13.166-279.406c0-52.955 14.482-79.433 43.447-79.433 24.357 0 43.813 17.774 58.295 53.394s21.723 82.213 21.723 139.703c0 61.44-12.8 115.566-38.327 162.597-24.779 46.091-61.596 82.932-106.288 107.059l-1.378 0.68c-46.299 24.722-99.182 37.157-158.574 37.157-76.946 0-143.799-15.799-200.558-47.47-56.546-31.711-101.362-78.503-129.802-134.958l-0.831-1.82c-30.281-59.685-45.349-128.512-45.349-206.629 0-105.179 28.014-185.783 84.261-242.030 56.174-56.174 137.582-84.261 244.297-84.261 40.375 0 84.699 4.462 133.12 13.458 48.347 8.923 95.963 21.943 142.848 39.131v-109.714c-81.554-34.67-172.032-52.005-271.433-52.005-144.823 0-257.609 38.034-338.578 114.249s-121.417 182.199-121.417 317.733c0 94.135 20.626 179.566 62.025 256.293 41.229 76.331 101.402 137.795 174.356 179.428l2.21 1.162c76.361 43.593 164.279 65.39 263.68 65.39 83.822 0 158.72-17.115 224.549-51.419 64.686-33.361 116.74-83.395 151.634-144.495l0.942-1.79c35.84-63.195 53.76-136.192 53.76-218.843zM406.309 440.539c0-80.384 32.768-120.539 98.231-120.539 34.377 0 60.416 12.069 78.263 36.279 17.993 24.137 28.818 63.561 32.622 117.979l7.461 126.318c-18.792 4.011-40.382 6.307-62.508 6.307-1.142 0-2.282-0.006-3.421-0.018l0.174 0.001c-47.543 0-84.626-14.848-111.177-44.617-26.405-29.696-39.643-70.217-39.643-121.71z" />
<glyph unicode="&#xe90d;" glyph-name="info-blue" d="M511.68 565.888c-0.019 0-0.042 0-0.064 0-39.623 0-71.744 32.121-71.744 71.744s32.121 71.744 71.744 71.744c39.623 0 71.744-32.121 71.744-71.744v0-0.128c0-0.010 0-0.021 0-0.032 0-39.535-32.049-71.584-71.584-71.584h-0.096zM446.272 187.712v323.648h130.816v-323.616h-130.816zM858.432 795.040c-191.456 191.52-501.92 191.52-693.44 0-191.552-191.52-191.552-502.016-0.064-693.536 191.52-191.52 502.080-191.52 693.536-0.032v0.032c191.552 190.528 192.32 500.224 1.824 691.744-0.594 0.605-1.188 1.189-1.793 1.763l-0.031 0.029z" />
<glyph unicode="&#xe90e;" d="M858.464 795.040c-191.488 191.52-501.984 191.52-693.472 0-191.552-191.52-191.552-502.016-0.064-693.536 191.52-191.52 502.080-191.52 693.536-0.032v0.032c191.552 190.528 192.32 500.224 1.824 691.744-0.594 0.605-1.188 1.189-1.793 1.763l-0.031 0.029z" />
<glyph unicode="&#xe90f;" d="M531.936 362.752h-54.4l-16.224 318.112h86.56zM457.568 263.040c0 15.424 4.064 27.168 12.16 35.2 8.16 8 19.712 12 34.72 12 14.784 0 26.144-4.16 34.048-12.48 7.936-8.32 11.872-19.904 11.872-34.688 0-14.816-4-26.528-12.032-35.168-8-8.64-19.328-12.96-33.92-12.96-14.784 0-26.272 4.16-34.496 12.48-8.256 8.32-12.352 20.224-12.352 35.648z" />
<glyph unicode="&#xe910;" glyph-name="menu" d="M128 192h768v85.333h-768v-85.333zM128 405.333h768v85.333h-768v-85.333zM128 704v-85.333h768v85.333h-768z" />
<glyph unicode="&#xe911;" glyph-name="not-notified" d="M427.093 63.573c0-46.933 37.973-84.907 84.907-84.907s84.907 38.016 84.907 84.907h-169.813zM805.547 242.347v248.32c0 138.667-96 254.72-225.707 285.44v30.72c0 37.547-30.293 67.84-67.84 67.84s-67.84-30.293-67.84-67.84v-30.72c-129.707-30.72-225.707-146.773-225.707-285.44v-248.32l-90.453-90.411v-45.269h768v45.269l-90.453 90.411z" />
<glyph unicode="&#xe912;" d="M463.726 33.036c0-53.638 43.398-97.036 97.036-97.036s97.036 43.398 97.036 97.036h-194.072zM896.244 237.349v283.794c0 158.476-109.714 291.109-257.95 326.217v35.109c0 42.91-34.621 77.531-77.531 77.531s-77.531-34.621-77.531-77.531v-35.109c-149.019-36.158-257.95-168.423-257.95-326.13 0-0.031 0-0.061 0-0.092v0.005-283.794l-103.375-103.375v-51.688h877.714v51.688l-103.375 103.375z" />
<glyph unicode="&#xe913;" d="M414.476 764.952c0-107.722-87.326-195.048-195.048-195.048s-195.048 87.326-195.048 195.048c0 107.722 87.326 195.048 195.048 195.048s195.048-87.326 195.048-195.048z" />
<glyph unicode="&#xe914;" glyph-name="phone-black" d="M170.667 832c-23.564 0-42.667-19.103-42.667-42.667v0c0-400.555 324.779-725.333 725.333-725.333 23.564 0 42.667 19.103 42.667 42.667v0 149.333c0 23.541-19.083 42.624-42.624 42.624-0.015 0-0.030 0-0.045 0h0.002c-53.248 0-104.448 8.576-152.405 24.277-3.927 1.321-8.449 2.084-13.15 2.084-11.785 0-22.451-4.793-30.155-12.535l-93.911-93.997c-121.582 62.84-218.239 159.456-279.442 277.424l-1.689 3.579 93.867 94.165c7.734 7.723 12.519 18.399 12.519 30.192 0 4.687-0.756 9.197-2.152 13.416l0.086-0.301c-15.393 45.447-24.277 97.792-24.277 152.212 0 0.068 0 0.136 0 0.204v-0.010c0 23.595-19.072 42.667-42.624 42.667h-149.333z" />
<glyph unicode="&#xe915;" glyph-name="profile_selected" d="M106.325 204.501v-149.888h802.347v149.888c0 139.947-267.392 209.92-401.109 209.92s-401.237-69.973-401.237-209.92zM507.563 851.712c-100.523 0-182.101-82.645-182.101-184.32 0-101.717 81.579-184.277 182.101-184.277 100.608 0 181.547 82.56 181.547 184.277 0 101.675-80.939 184.32-181.547 184.32z" />
<glyph unicode="&#xe916;" glyph-name="profile_unselected" d="M106.325 204.501v-149.888h802.347v149.888c0 139.947-267.392 209.92-401.109 209.92s-401.237-69.973-401.237-209.92zM507.563 851.712c-100.523 0-182.101-82.645-182.101-184.32 0-101.717 81.579-184.277 182.101-184.277 100.608 0 181.547 82.56 181.547 184.277 0 101.675-80.939 184.32-181.547 184.32z" />
<glyph unicode="&#xe917;" glyph-name="upload-icon" d="M996.295 333.426h-94.663c-14.052 0-20.025-5.916-20.025-19.684v-192.853h-739.214v192.853c0 13.767-5.973 19.684-20.025 19.684h-94.663c-13.995 0-25.486-5.916-25.486-19.684v-307.2c0-13.767 11.492-23.211 25.486-23.211h968.59c13.995 0 25.486 9.444 25.486 23.211v307.2c0 13.767-11.492 19.684-25.486 19.684zM435.541 292.295c0-13.71 15.132-21.39 29.127-21.39h94.663c14.052 0 29.127 7.68 29.127 21.39v266.183h214.869l-291.328 357.148-291.271-357.262h214.812v-266.126z" />
<glyph unicode="&#xe918;" glyph-name="download" d="M996.295 333.426h-94.663c-14.052 0-20.025-5.916-20.025-19.684v-192.853h-739.214v192.853c0 13.767-5.973 19.684-20.025 19.684h-94.663c-13.995 0-25.486-5.916-25.486-19.684v-307.2c0-13.767 11.492-23.211 25.486-23.211h968.59c13.995 0 25.486 9.444 25.486 23.211v307.2c0 13.767-11.492 19.684-25.486 19.684zM435.541 894.236c0 13.767 15.132 21.447 29.127 21.447h94.663c14.052 0 29.127-7.68 29.127-21.447v-266.126h214.869l-291.328-357.262-291.271 357.262h214.812v266.126z" />
<glyph unicode="&#xe919;" glyph-name="university" d="M992 704v-32c0-8.837-7.163-16-16-16v0h-48v-24c0-13.254-10.746-24-24-24h-784c-13.254 0-24 10.746-24 24v24h-48c-8.837 0-16 7.163-16 16v0 32c0 6.629 4.032 12.317 9.777 14.745l0.105 0.039 464 176c1.808 0.769 3.911 1.217 6.118 1.217s4.31-0.447 6.223-1.256l-0.105 0.039 464-176c5.85-2.467 9.882-8.155 9.882-14.784v0zM944 96h-864c-26.51 0-48-21.49-48-48v-32c0-8.837 7.163-16 16-16v0h928c8.837 0 16 7.163 16 16v0 32c0 26.51-21.49 48-48 48zM192 576v-384h-72c-13.254 0-24-10.746-24-24v-40h832v40c0 13.254-10.746 24-24 24h-72v384h-128v-384h-128v384h-128v-384h-128v384h-128z" />
<glyph unicode="&#xe91a;" glyph-name="income" d="M339.782 656.71h320.372c1.815-0.233 2.746-1.117 2.746-2.7v-30.487c0-1.815-0.931-2.746-2.746-2.746h-120.553v-2.7c17.175-9.263 30.441-28.207 39.936-56.879l1.35-9.821h79.22c1.815-0.186 2.746-1.117 2.746-2.7v-30.487c0-1.815-0.931-2.7-2.746-2.7h-76.195c0-34.071-20.899-67.305-62.65-99.607-37.004-21.178-63.348-31.837-78.895-31.837 0-0.931-0.931-1.35-2.746-1.35l172.079-222.86v-2.7h-65.35c-0.698 0-67.165 86.249-199.494 258.746v1.396h20.666c73.169 0 117.062 26.298 131.77 78.895 0.931 6.33 1.35 11.404 1.35 15.267v4.049h-160.861c-1.815 0-2.7 0.931-2.7 2.7v30.487c0.233 1.815 1.164 2.7 2.7 2.7h159.511c-5.399 20.573-16.896 37.283-34.537 50.129-24.39 12.893-46.592 19.316-66.7 19.316h-58.275c-1.815 0-2.7 0.931-2.7 2.746v30.441c0.233 1.815 1.164 2.7 2.7 2.7zM611.793 145.548h-65.35c-6.796 0-6.796 0-208.71 263.261l-2.42 3.119v15.593l11.636 1.35h20.666c67.863 0 107.334 23.040 120.553 70.423 0.14 1.489 0.279 3.025 0.465 4.561h-148.852c-8.192 0-14.336 6.144-14.336 14.336v30.487c1.071 9.030 6.935 14.336 14.336 14.336h142.941c-5.539 11.404-13.731 20.992-24.809 29.137-21.132 10.985-41.798 17.036-59.857 17.036h-58.275c-8.192 0-14.336 6.191-14.336 14.383v30.441c1.071 9.076 6.935 14.336 14.336 14.336h320.372c9.030-1.024 14.383-6.889 14.383-14.336v-30.487c0-8.192-6.191-14.383-14.383-14.383h-92.393c9.169-11.311 16.803-26.112 22.854-44.311l0.279-1.862h69.26c8.983-0.931 14.383-6.796 14.383-14.336v-30.487c0-8.192-6.191-14.336-14.383-14.336h-65.257c-4.189-33.606-26.438-66.234-66.467-97.14-29.277-16.849-51.386-27.089-68.189-31.604l163.142-211.316v-15.593l-11.59-2.607zM551.843 168.82h38.26l-174.127 225.559 26.391 1.35c9.216 0 29.37 5.26 73.123 30.255 37.236 28.951 56.785 59.345 56.785 89.507v11.636h78.895v12.707l-80.477-0.047-2.793 19.875c-8.006 23.599-19.596 40.541-33.932 48.221l-6.097 3.305v18.572l11.636 2.7h111.616v12.707l-302.452-0.093 0.047-12.614h49.338c21.923 0 46.173-6.935 72.145-20.62 21.178-15.36 34.304-34.397 40.355-57.484l3.863-14.569h-165.748l0.047-12.66h163.607v-15.686c0-4.236-0.465-9.914-1.489-16.896-16.384-59.020-63.86-88.436-141.405-88.902 128.233-167.145 171.38-222.86 182.412-236.823zM512-40.727c-269.498 0-488.727 219.229-488.727 488.727s219.229 488.727 488.727 488.727c269.498 0 488.727-219.229 488.727-488.727s-219.229-488.727-488.727-488.727zM512 890.182c-243.805 0-442.182-198.377-442.182-442.182s198.377-442.182 442.182-442.182 442.182 198.377 442.182 442.182-198.377 442.182-442.182 442.182z" />
<glyph unicode="&#xe91b;" glyph-name="lock" horiz-adv-x="751" d="M62.377-60.37h623.579c17.289 0 32.040 6.208 44.171 18.615 12.14 12.407 18.201 27.429 18.201 45.175v382.665c0 17.691-6.061 32.814-18.201 45.166-12.185 12.416-26.882 18.624-44.171 18.624h-478.094v212.526c0 46.967 16.234 87.031 48.757 120.229 32.451 33.198 71.678 49.856 117.548 49.856 45.932 0 85.097-16.603 117.548-49.856 32.523-33.198 48.748-73.307 48.748-120.229 0-11.483 4.103-21.495 12.292-29.879 8.251-8.439 17.987-12.626 29.277-12.626h41.552c11.291 0 20.972 4.242 29.224 12.626 8.189 8.384 12.346 18.341 12.346 29.879 0 81.966-28.473 152.009-85.419 210.249-56.937 58.231-125.424 87.351-205.568 87.351-80.091 0-148.631-29.12-205.577-87.351-56.937-58.24-85.41-128.283-85.41-210.249v-212.581h-20.803c-17.352 0-32.040-6.208-44.171-18.615-12.14-12.416-18.21-27.483-18.21-45.175v-382.665c0-17.746 6.070-32.768 18.21-45.175 12.131-12.352 26.864-18.56 44.171-18.56z" />
<glyph unicode="&#xe91c;" glyph-name="calender" d="M867.277 871.629h-81.971v81.971h-54.682v-81.971h-437.248v81.971h-54.682v-81.971h-81.971c-75.436-0.087-136.565-61.217-136.653-136.644v-655.931c0.087-75.436 61.217-136.565 136.644-136.653h710.562c75.436 0.087 136.565 61.217 136.653 136.644v655.931c-0.087 75.436-61.217 136.565-136.644 136.653h-0.008zM949.299 79.053c0-45.21-36.762-81.971-81.971-81.971h-710.605c-45.248 0.058-81.913 36.723-81.971 81.966v519.276h874.547v-519.27zM949.299 652.954h-874.598v82.022c0 45.21 36.762 81.971 81.971 81.971h81.971v-54.682h54.733v54.682h437.299v-54.682h54.682v54.682h81.971c45.21 0 81.971-36.762 81.971-81.971v-82.022zM464.538 321.382h94.874c26.201 0.029 47.433 21.261 47.462 47.46v94.877c-0.029 26.201-21.261 47.433-47.46 47.462h-94.876c-26.201-0.029-47.433-21.261-47.462-47.46v-94.877c0.051-26.112 21.35-47.462 47.462-47.462zM701.747 321.382h94.822c26.201 0.029 47.433 21.261 47.462 47.46v94.877c-0.029 26.201-21.261 47.433-47.46 47.462h-94.825c-26.201-0.029-47.433-21.261-47.462-47.46v-94.877c0-26.112 21.299-47.462 47.462-47.462zM227.43 84.224h94.822c26.201 0.029 47.433 21.261 47.462 47.46v94.877c-0.029 26.201-21.261 47.433-47.46 47.462h-94.825c-26.201-0.029-47.433-21.261-47.462-47.46v-94.877c0-26.163 21.299-47.462 47.462-47.462zM464.538 84.224h94.874c26.201 0.029 47.433 21.261 47.462 47.46v94.877c-0.029 26.201-21.261 47.433-47.46 47.462h-94.876c-26.201-0.029-47.433-21.261-47.462-47.46v-94.877c0.051-26.163 21.35-47.462 47.462-47.462zM701.747 84.224h94.822c26.201 0.029 47.433 21.261 47.462 47.46v94.877c-0.029 26.201-21.261 47.433-47.46 47.462h-94.825c-26.201-0.029-47.433-21.261-47.462-47.46v-94.877c0-26.163 21.299-47.462 47.462-47.462z" />
<glyph unicode="&#xe91d;" glyph-name="mobile" horiz-adv-x="647" d="M524.557 137.944c0-10.078-8.623-17.246-17.192-17.246h-419.678c-9.476 0.12-17.126 7.77-17.246 17.235v732.979c0 10.078 8.623 17.246 17.246 17.246h418.223c10.024 0 17.246-8.623 17.246-17.246v-732.968h1.401zM297.499-27.298c-28.726 0-53.194 24.414-53.194 53.14s24.468 53.14 53.194 53.14c28.726 0 53.14-24.414 53.14-53.14s-24.414-53.14-53.14-53.14zM544.714 960h-494.43c-0.096 0.001-0.21 0.001-0.324 0.001-27.592 0-49.96-22.368-49.96-49.96 0-0.114 0-0.228 0.001-0.342v0.017-919.768c0-28.726 23.013-50.338 50.284-50.338h495.832c0.113-0.001 0.246-0.001 0.379-0.001 27.592 0 49.96 22.368 49.96 49.96 0 0.133-0.001 0.266-0.002 0.399v-0.020 919.768c0 27.325-23.013 50.284-51.739 50.284z" />
<glyph unicode="&#xe91e;" glyph-name="radio-off" d="M512 934.4c-281.6 0-512-230.4-512-512s230.4-512 512-512 512 230.4 512 512-230.4 512-512 512v0zM512 12.8c-225.28 0-409.6 184.32-409.6 409.6s184.32 409.6 409.6 409.6c225.28 0 409.6-184.32 409.6-409.6s-184.32-409.6-409.6-409.6v0z" />
<glyph unicode="&#xe91f;" glyph-name="radio-on_326677" d="M512 704c-143.36 0-256-112.64-256-256s112.64-256 256-256 256 112.64 256 256-112.64 256-256 256v0zM512 960c-281.6 0-512-230.4-512-512s230.4-512 512-512 512 230.4 512 512-230.4 512-512 512v0zM512 38.4c-225.28 0-409.6 184.32-409.6 409.6s184.32 409.6 409.6 409.6c225.28 0 409.6-184.32 409.6-409.6s-184.32-409.6-409.6-409.6v0z" />
<glyph unicode="&#xe920;" glyph-name="page-1" horiz-adv-x="1536" d="M105.408 41.408h1324.544v817.024h-1324.544v-817.024zM1482.624-60.16h-1429.952c-29.056 0-52.672 22.784-52.672 50.816v918.528c0 28.032 23.616 50.816 52.672 50.816h1429.952c29.12 0 52.736-22.784 52.736-50.816v-918.592c0-28.032-23.68-50.752-52.736-50.752zM693.888 580.096h-450.56c-29.12 0-52.736 22.72-52.736 50.816 0 28.032 23.616 50.752 52.672 50.752h450.56c29.12 0 52.736-22.72 52.736-50.752 0-28.096-23.616-50.816-52.672-50.816zM693.888 389.568h-450.56c-29.12 0-52.736 22.784-52.736 50.816s23.616 50.816 52.672 50.816h450.56c29.12 0 52.736-22.784 52.736-50.816s-23.616-50.816-52.672-50.816zM693.888 203.328h-450.56c-29.12 0-52.736 22.784-52.736 50.816s23.616 50.752 52.672 50.752h450.56c29.12 0 52.736-22.72 52.736-50.752s-23.616-50.816-52.672-50.816zM1118.72 702.848c69.184 0 125.248-54.016 125.248-120.64s-56.128-120.768-125.248-120.768-125.184 54.080-125.184 120.704 56.064 120.64 125.184 120.64zM1327.744 208.64c0 1.728 0.256 3.392 0.256 5.12 0 111.424-93.696 201.728-209.28 201.728-115.52 0-209.216-90.24-209.216-201.664 0-1.792 0.256-3.456 0.256-5.184h417.92z" />
<glyph unicode="&#xe921;" glyph-name="camera" horiz-adv-x="1170" d="M191.707 587.557h782.775v-453.339h-782.775v453.339zM134.363-16.384h897.536c49.152 0 88.869 40.96 88.869 91.429v571.758c0 50.542-39.863 91.429-88.869 91.429h-897.536c-49.225 0-88.942-40.96-88.942-91.429v-571.611c0-50.615 39.863-91.429 88.942-91.429zM578.999 486.254c63.561 0 114.834-52.37 114.834-116.663s-51.273-116.663-114.834-116.663c-63.488 0-114.834 52.37-114.834 116.663 0 64.366 51.346 116.663 114.834 116.663zM578.999 636.855c-144.091 0-261.12-119.515-261.12-267.264s117.029-267.264 261.12-267.264c144.091 0 261.12 119.515 261.12 267.264s-117.029 267.264-261.12 267.264zM697.125 756.224l57.783-116.517 130.267 68.462-98.45 198.656h-421.083l-96.256-199.534 131.072-66.926 55.881 115.858zM579.511 833.829l-162.377-9.874-74.825-163.401h-213.87v-595.822h451.072v99.767l-101.303 31.086-73.947 70.144-26.331 108.398 26.331 97.865 73.874 65.682 101.376 35.694zM323.803 690.688h-224.622v-656.091h509.586v152.357l-115.712 35.474-62.537 59.319-22.309 92.014 21.87 81.408 62.903 55.881 115.785 40.814v313.929l-210.725-12.8-74.24-162.377zM550.254 594.871l-81.554-28.745-9.582-5.632-80.677-71.68-30.72-114.249 30.281-124.855 85.358-80.969 86.894-26.697v-47.177h-392.558v535.552h203.191l75.337 164.571 114.030 6.949v-206.994zM582.583 833.829l162.377-9.874 74.752-163.401h213.943v-595.822h-451.072v99.767l101.303 31.086 73.947 70.144 26.331 108.398-26.331 97.865-73.947 65.682-101.303 35.694zM725.87 794.99l75.337-164.571h203.191v-535.552h-392.558v47.177l86.894 26.697 85.358 80.969 30.281 124.855-30.72 114.249-80.677 71.68-9.582 5.632-81.554 28.745v206.994l114.103-6.875zM732.014 455.168l21.87-81.408-22.309-92.014-62.537-59.246-115.712-35.547v-152.357h509.586v656.091h-224.695l-74.24 162.377-210.651 12.727v-313.929l115.639-40.814 62.903-55.881z" />
<glyph unicode="&#xe922;" glyph-name="selfie-icon" d="M1021.184-17.351v300.345h-86.585v-257.564h-242.916v-86.613h285.639c23.609 0 43.861 20.252 43.861 43.89zM43.861-61.184h295.794v86.613h-253.042v257.564h-86.613v-301.483c0-22.471 20.252-42.752 43.861-42.752zM1021.212 916.167c0 23.609-19.143 42.752-42.752 42.752h-286.805v-86.613h242.916v-237.312h86.613v281.145zM86.585 873.387h251.904v86.613h-294.628c-23.609 0-42.752-19.115-42.752-42.724v-280.064h86.613v236.174h-1.138zM402.603 386.418v48.356c-12.373 21.39-19.115 44.999-22.5 66.361-7.879 1.138-16.868 11.264-28.103 48.356-14.62 50.631 1.138 58.482 13.483 57.372-8.988 26.994-10.126 52.85-3.356 77.596 6.741 29.241 22.471 51.74 39.339 69.746 11.264 11.236 23.609 22.471 37.12 30.35 10.338 7.364 22.259 13.474 35.028 17.73l0.954 0.276c9.709 3.426 20.907 5.467 32.563 5.603l0.063 0.001c34.873 3.385 61.867-5.604 80.981-16.868 29.241-15.73 39.367-37.092 39.367-37.092s71.964-5.632 40.476-156.359c10.126-3.356 16.868-16.868 5.632-56.235-13.511-49.493-26.994-51.712-33.735-46.080-3.385-16.896-7.879-36.011-16.868-52.878v-56.235c0-2.247 1.138-4.494 3.356-5.632 15.758-7.851 88.86-43.861 163.072-100.096 34.123-25.598 56.022-65.885 56.235-111.297v-38.263c0-0.025 0-0.055 0-0.085 0-11.138-9.029-20.167-20.167-20.167-0.020 0-0.040 0-0.060 0h-625.291c-0.025 0-0.055 0-0.086 0-11.138 0-20.167 9.029-20.167 20.167 0 0.030 0 0.060 0 0.090v-0.005 38.229c0 43.861 20.252 85.476 56.235 111.332 74.24 56.235 147.342 92.245 163.072 100.124 2.041 1.043 3.414 3.131 3.414 5.539 0 0.023 0 0.045 0 0.068v-0.003z" />
<glyph unicode="&#xe923;" glyph-name="oval" d="M1024 448c0-282.77-229.23-512-512-512s-512 229.23-512 512c0 282.77 229.23 512 512 512s512-229.23 512-512z" />
<glyph unicode="&#xe924;" glyph-name="text-warning-icon" d="M28.444 49.778h967.111l-483.556 853.333-483.556-853.333zM568.889 163.556h-113.778v113.778h113.778v-113.778zM568.889 334.222h-113.778v227.556h113.778v-227.556z" />
<glyph unicode="&#xe925;" glyph-name="brand" horiz-adv-x="970" d="M93.022 404.992l333.716-336.734 469.962 472.657-30.504 303.643-303.158 29.534-469.962-469.1zM17.839 429.784l507.581 510.545c7.025 6.59 16.503 10.637 26.926 10.637 0.443 0 0.885-0.007 1.325-0.022l-0.064 0.002 350.154-35.463c16.492-2.371 28.241-14.174 31.744-33.091l34.061-349.777c0.273-1.575 0.429-3.388 0.429-5.238 0-9.647-4.239-18.305-10.956-24.211l-0.036-0.031-507.581-509.305c-6.405-7.122-15.594-11.631-25.839-11.803h-0.030c-9.432 0-17.624 3.557-25.869 11.857l-384.269 386.371c-6.482 6.22-10.51 14.955-10.51 24.63 0 0.057 0 0.114 0 0.17v-0.009c2.371 9.432 5.875 18.863 12.935 24.792zM652.342 751.212c65.752 0 119.808-54.38 119.808-121.694-0.214-66.631-54.279-120.563-120.939-120.563-0.019 0-0.038 0-0.057 0h0.003c-65.805 0-119.862 54.38-119.862 121.748 0 33.037 12.935 63.757 36.433 85.046 21.127 23.66 51.739 35.463 84.615 35.463z" />
<glyph unicode="&#xe926;" glyph-name="arrow-up" horiz-adv-x="1463" d="M1236.114 9.143l153.6 166.034-658.286 711.68-658.286-711.68 153.6-166.034 504.686 545.646z" />
<glyph unicode="&#xe927;" glyph-name="sucess-check" d="M512-40.704c269.904 0 488.704 218.8 488.704 488.704s-218.8 488.704-488.704 488.704v0c-269.904 0-488.704-218.8-488.704-488.704s218.8-488.704 488.704-488.704v0zM512 5.803c-244.219 0-442.197 197.978-442.197 442.197s197.978 442.197 442.197 442.197v0c244.219 0 442.197-197.978 442.197-442.197s-197.978-442.197-442.197-442.197v0zM433.664 320.256l-122.112 131.328-40.789-43.776 162.987-175.104 349.013 375.125-40.704 43.776z" />
</font>
</defs>
</svg>
